<svg width="22" height="21" viewBox="0 0 22 21" fill="none" xmlns="http://www.w3.org/2000/svg">
<path d="M16.1243 0.930245C15.0368 0.927531 13.971 1.23869 13.0514 1.82734C12.1319 2.41599 11.3968 3.25781 10.9319 4.25437C10.3835 3.04631 9.4427 2.06565 8.26665 1.47632C7.09061 0.886992 5.75063 0.724716 4.47071 1.01662C3.1908 1.30852 2.04852 2.03692 1.23484 3.08003C0.421161 4.12315 -0.014611 5.41777 0.000373956 6.74747C0.000373956 12.8417 10.9319 20.875 10.9319 20.875C10.9319 20.875 21.8634 12.8417 21.8634 6.74747C21.8634 5.20464 21.2587 3.72501 20.1824 2.63407C19.1062 1.54313 17.6464 0.930245 16.1243 0.930245V0.930245Z" fill="#FF6060"/>
</svg>
