<svg width="50" height="45" viewBox="0 0 50 45" fill="none" xmlns="http://www.w3.org/2000/svg">
<path fill-rule="evenodd" clip-rule="evenodd" d="M24.9758 12.1341L23.1966 8.27766C22.1009 5.90259 20.2398 4.0152 17.9669 2.89462C15.7001 1.77706 13.1386 1.47632 10.6967 2.02425C8.25014 2.57321 6.02278 3.95307 4.41386 5.98235C2.8028 8.01434 1.9237 10.5604 1.95388 13.1949L1.95398 13.204V13.213C1.95398 16.1923 3.32681 19.5741 5.59491 23.08C7.84608 26.5598 10.8758 30.0045 13.9506 33.0708C17.0191 36.1309 20.094 38.7762 22.4047 40.6582C23.4548 41.5133 24.3444 42.2087 25.0004 42.7114C25.6565 42.2087 26.5461 41.5133 27.5961 40.6582C29.9069 38.7762 32.9817 36.1309 36.0503 33.0708C39.1251 30.0045 42.1548 26.5598 44.4059 23.08C46.674 19.5741 48.0469 16.1923 48.0469 13.213C48.0469 10.153 46.8261 7.25 44.7059 5.13561C42.5917 3.02718 39.7697 1.88211 36.8752 1.88211V0.124302C40.3561 0.124302 43.6945 1.50329 46.1558 3.95791C48.6172 6.41252 50 9.7417 50 13.213C50 26.9251 25.0004 45 25.0004 45C25.0004 45 0.000855213 26.9251 0.000855213 13.213C-0.0334144 10.2212 0.963167 7.30833 2.824 4.96132C4.68483 2.61431 7.29714 0.975429 10.2242 0.318645C13.1513 -0.33814 16.2157 0.0269812 18.9053 1.35297C20.9148 2.34369 22.624 3.82593 23.8829 5.64586C24.3089 6.26175 24.6834 6.91631 25.0004 7.60359C25.3246 6.91999 25.7061 6.26876 26.1396 5.65616C27.128 4.25937 28.386 3.06345 29.8478 2.14277C31.9506 0.8183 34.3881 0.118194 36.8752 0.124302L36.8699 1.88211C34.7987 1.87702 32.752 2.45908 30.9676 3.58294C29.1806 4.7085 27.7251 6.33581 26.7968 8.29353L24.9758 12.1341Z" fill="#FF6060"/>
</svg>
