<svg width="50" height="45" viewBox="0 0 50 45" fill="none" xmlns="http://www.w3.org/2000/svg">
<path d="M36.8752 0.124302C34.3881 0.118194 31.9506 0.818301 29.8478 2.14277C27.7449 3.46723 26.0636 5.36132 25.0004 7.60359C23.7464 4.88545 21.5948 2.67896 18.9053 1.35297C16.2157 0.0269811 13.1513 -0.33814 10.2242 0.318645C7.29714 0.975429 4.68483 2.61431 2.824 4.96132C0.963167 7.30833 -0.0334144 10.2212 0.000855213 13.213C0.000855213 26.9251 25.0004 45 25.0004 45C25.0004 45 50 26.9251 50 13.213C50 9.7417 48.6172 6.41252 46.1558 3.95791C43.6945 1.50329 40.3561 0.124302 36.8752 0.124302Z" fill="#FF6060"/>
</svg>
