<svg width="150" height="210" viewBox="0 0 150 210" fill="none" xmlns="http://www.w3.org/2000/svg">
<rect x="1.5" y="1.5" width="147" height="207" rx="4.5" stroke="#529ACC" stroke-width="3"/>
<path d="M73.4648 84H70.5L62.8945 71.8945V84H59.9297V66.9375H62.8945L70.5234 79.0898V66.9375H73.4648V84ZM90.5859 75.9141C90.5859 77.5859 90.2969 79.0547 89.7188 80.3203C89.1406 81.5781 88.3125 82.5469 87.2344 83.2266C86.1641 83.8984 84.9297 84.2344 83.5312 84.2344C82.1484 84.2344 80.9141 83.8984 79.8281 83.2266C78.75 82.5469 77.9141 81.582 77.3203 80.332C76.7344 79.082 76.4375 77.6406 76.4297 76.0078V75.0469C76.4297 73.3828 76.7227 71.9141 77.3086 70.6406C77.9023 69.3672 78.7344 68.3945 79.8047 67.7227C80.8828 67.043 82.1172 66.7031 83.5078 66.7031C84.8984 66.7031 86.1289 67.0391 87.1992 67.7109C88.2773 68.375 89.1094 69.3359 89.6953 70.5938C90.2812 71.8438 90.5781 73.3008 90.5859 74.9648V75.9141ZM87.6211 75.0234C87.6211 73.1328 87.2617 71.6836 86.543 70.6758C85.832 69.668 84.8203 69.1641 83.5078 69.1641C82.2266 69.1641 81.2227 69.668 80.4961 70.6758C79.7773 71.6758 79.4102 73.0938 79.3945 74.9297V75.9141C79.3945 77.7891 79.7578 79.2383 80.4844 80.2617C81.2188 81.2852 82.2344 81.7969 83.5312 81.7969C84.8438 81.7969 85.8516 81.2969 86.5547 80.2969C87.2656 79.2969 87.6211 77.8359 87.6211 75.9141V75.0234ZM34.9336 105.66V112H31.9688V94.9375H38.4961C40.4023 94.9375 41.9141 95.4336 43.0312 96.4258C44.1562 97.418 44.7188 98.7305 44.7188 100.363C44.7188 102.035 44.168 103.336 43.0664 104.266C41.9727 105.195 40.4375 105.66 38.4609 105.66H34.9336ZM34.9336 103.281H38.4961C39.5508 103.281 40.3555 103.035 40.9102 102.543C41.4648 102.043 41.7422 101.324 41.7422 100.387C41.7422 99.4648 41.4609 98.7305 40.8984 98.1836C40.3359 97.6289 39.5625 97.3438 38.5781 97.3281H34.9336V103.281ZM60.9375 103.914C60.9375 105.586 60.6484 107.055 60.0703 108.32C59.4922 109.578 58.6641 110.547 57.5859 111.227C56.5156 111.898 55.2812 112.234 53.8828 112.234C52.5 112.234 51.2656 111.898 50.1797 111.227C49.1016 110.547 48.2656 109.582 47.6719 108.332C47.0859 107.082 46.7891 105.641 46.7812 104.008V103.047C46.7812 101.383 47.0742 99.9141 47.6602 98.6406C48.2539 97.3672 49.0859 96.3945 50.1562 95.7227C51.2344 95.043 52.4688 94.7031 53.8594 94.7031C55.25 94.7031 56.4805 95.0391 57.5508 95.7109C58.6289 96.375 59.4609 97.3359 60.0469 98.5938C60.6328 99.8438 60.9297 101.301 60.9375 102.965V103.914ZM57.9727 103.023C57.9727 101.133 57.6133 99.6836 56.8945 98.6758C56.1836 97.668 55.1719 97.1641 53.8594 97.1641C52.5781 97.1641 51.5742 97.668 50.8477 98.6758C50.1289 99.6758 49.7617 101.094 49.7461 102.93V103.914C49.7461 105.789 50.1094 107.238 50.8359 108.262C51.5703 109.285 52.5859 109.797 53.8828 109.797C55.1953 109.797 56.2031 109.297 56.9062 108.297C57.6172 107.297 57.9727 105.836 57.9727 103.914V103.023ZM72.8086 107.605C72.8086 106.855 72.543 106.277 72.0117 105.871C71.4883 105.465 70.5391 105.055 69.1641 104.641C67.7891 104.227 66.6953 103.766 65.8828 103.258C64.3281 102.281 63.5508 101.008 63.5508 99.4375C63.5508 98.0625 64.1094 96.9297 65.2266 96.0391C66.3516 95.1484 67.8086 94.7031 69.5977 94.7031C70.7852 94.7031 71.8438 94.9219 72.7734 95.3594C73.7031 95.7969 74.4336 96.4219 74.9648 97.2344C75.4961 98.0391 75.7617 98.9336 75.7617 99.918H72.8086C72.8086 99.0273 72.5273 98.332 71.9648 97.832C71.4102 97.3242 70.6133 97.0703 69.5742 97.0703C68.6055 97.0703 67.8516 97.2773 67.3125 97.6914C66.7812 98.1055 66.5156 98.6836 66.5156 99.4258C66.5156 100.051 66.8047 100.574 67.3828 100.996C67.9609 101.41 68.9141 101.816 70.2422 102.215C71.5703 102.605 72.6367 103.055 73.4414 103.562C74.2461 104.062 74.8359 104.641 75.2109 105.297C75.5859 105.945 75.7734 106.707 75.7734 107.582C75.7734 109.004 75.2266 110.137 74.1328 110.98C73.0469 111.816 71.5703 112.234 69.7031 112.234C68.4688 112.234 67.332 112.008 66.293 111.555C65.2617 111.094 64.457 110.461 63.8789 109.656C63.3086 108.852 63.0234 107.914 63.0234 106.844H65.9883C65.9883 107.812 66.3086 108.562 66.9492 109.094C67.5898 109.625 68.5078 109.891 69.7031 109.891C70.7344 109.891 71.5078 109.684 72.0234 109.27C72.5469 108.848 72.8086 108.293 72.8086 107.605ZM90.7031 97.3281H85.3828V112H82.4414V97.3281H77.168V94.9375H90.7031V97.3281ZM102.926 104.383H95.918V109.633H104.109V112H92.9531V94.9375H104.027V97.3281H95.918V102.039H102.926V104.383ZM112.793 105.426H109.488V112H106.523V94.9375H112.523C114.492 94.9375 116.012 95.3789 117.082 96.2617C118.152 97.1445 118.688 98.4219 118.688 100.094C118.688 101.234 118.41 102.191 117.855 102.965C117.309 103.73 116.543 104.32 115.559 104.734L119.391 111.848V112H116.215L112.793 105.426ZM109.488 103.047H112.535C113.535 103.047 114.316 102.797 114.879 102.297C115.441 101.789 115.723 101.098 115.723 100.223C115.723 99.3086 115.461 98.6016 114.938 98.1016C114.422 97.6016 113.648 97.3438 112.617 97.3281H109.488V103.047ZM43.043 140H40.0898V122.938H43.043V140ZM50.5312 122.938L55.4531 136.016L60.3633 122.938H64.1953V140H61.2422V134.375L61.5352 126.852L56.4961 140H54.375L49.3477 126.863L49.6406 134.375V140H46.6875V122.938H50.5312ZM77.4727 136.027H70.8633L69.4805 140H66.3984L72.8438 122.938H75.5039L81.9609 140H78.8672L77.4727 136.027ZM71.6953 133.637H76.6406L74.168 126.559L71.6953 133.637ZM96.7266 137.785C96.1094 138.59 95.2539 139.199 94.1602 139.613C93.0664 140.027 91.8242 140.234 90.4336 140.234C89.0039 140.234 87.7383 139.91 86.6367 139.262C85.5352 138.613 84.6836 137.688 84.082 136.484C83.4883 135.273 83.1797 133.863 83.1562 132.254V130.918C83.1562 128.34 83.7734 126.328 85.0078 124.883C86.2422 123.43 87.9648 122.703 90.1758 122.703C92.0742 122.703 93.582 123.172 94.6992 124.109C95.8164 125.047 96.4883 126.398 96.7148 128.164H93.8086C93.4805 126.109 92.2891 125.082 90.2344 125.082C88.9062 125.082 87.8945 125.562 87.1992 126.523C86.5117 127.477 86.1562 128.879 86.1328 130.73V132.043C86.1328 133.887 86.5195 135.32 87.293 136.344C88.0742 137.359 89.1562 137.867 90.5391 137.867C92.0547 137.867 93.1328 137.523 93.7734 136.836V133.496H90.2578V131.246H96.7266V137.785ZM109.957 132.383H102.949V137.633H111.141V140H99.9844V122.938H111.059V125.328H102.949V130.039H109.957V132.383Z" fill="#529ACC"/>
</svg>
