<svg width="21" height="18" viewBox="0 0 21 18" fill="none" xmlns="http://www.w3.org/2000/svg">
<path d="M10.0854 0.747816C10.0194 0.809218 9.39332 1.92274 9.00294 2.67284C8.81624 3.02797 8.44662 3.73824 8.17882 4.24936C7.66776 5.22847 7.32076 5.86904 7.22458 6.00843C7.19252 6.0549 7.13972 6.10966 7.10577 6.12958C6.96245 6.21587 6.59848 6.28059 4.08652 6.67223C1.44066 7.08379 0.337435 7.26633 0.222397 7.31446C0.158278 7.33935 0.146963 7.3742 0.186566 7.42731C0.218626 7.47045 0.601455 7.78078 1.08801 8.15749C1.46329 8.4479 1.53118 8.49768 3.7282 10.0659C4.95401 10.9405 5.33307 11.2325 5.41227 11.3603C5.45376 11.43 5.45565 11.4466 5.44622 11.5927C5.41982 11.9494 5.3689 12.1901 4.85972 14.3723C4.28265 16.8433 4.13555 17.5287 4.16384 17.6249C4.18647 17.7079 4.24116 17.6963 4.61078 17.542C5.27083 17.2615 5.54428 17.1337 7.22647 16.3056C9.02935 15.4178 9.33674 15.2701 9.71014 15.1058C10.1194 14.9249 10.3061 14.8619 10.4268 14.8619C10.5286 14.8619 10.8039 14.9548 11.2132 15.1257C11.4376 15.2203 12.5974 15.7447 13.1952 16.0235C13.859 16.3322 14.8981 16.8035 15.2131 16.9379C15.6751 17.1354 16.3729 17.4109 16.4464 17.4258C16.5181 17.4391 16.5615 17.4009 16.5615 17.3229C16.5615 17.1669 16.4106 16.4218 15.941 14.2644C15.4922 12.2017 15.4413 11.966 15.3828 11.6092C15.3187 11.2359 15.3055 11.05 15.3356 10.9703C15.3828 10.8459 15.6242 10.6567 17.4855 9.28761C18.238 8.73499 18.9885 8.1774 19.1545 8.04962C19.658 7.66296 20.3539 7.09375 20.3747 7.05226C20.4029 6.99916 20.3709 6.96928 20.2615 6.94771C20.0654 6.9112 18.8773 6.7884 17.3441 6.64734C14.0325 6.34199 13.6252 6.29885 13.4611 6.23413C13.3932 6.20923 13.3593 6.17936 13.2989 6.09639C13.2027 5.96695 12.6389 4.97788 11.6884 3.27524C10.919 1.89619 10.8907 1.84641 10.5003 1.19754C10.2646 0.80258 10.1948 0.70633 10.1495 0.70633C10.1382 0.70633 10.1081 0.724583 10.0854 0.747816Z" fill="#FFD600"/>
</svg>
