<svg width="103" height="34" viewBox="0 0 103 34" fill="none" xmlns="http://www.w3.org/2000/svg">
<g clip-path="url(#clip0)">
<path fill-rule="evenodd" clip-rule="evenodd" d="M99.7677 1.37374H2.57576C1.9119 1.37374 1.37374 1.9119 1.37374 2.57576V31.4242C1.37374 32.0881 1.9119 32.6263 2.57576 32.6263H99.7677C100.432 32.6263 100.97 32.0881 100.97 31.4242V2.57576C100.97 1.9119 100.432 1.37374 99.7677 1.37374ZM2.57576 0C1.15321 0 0 1.15321 0 2.57576V31.4242C0 32.8467 1.1532 34 2.57576 34H99.7677C101.19 34 102.343 32.8467 102.343 31.4242V2.57576C102.343 1.15321 101.19 0 99.7677 0H2.57576Z" fill="#49B0FF"/>
<path d="M10.3924 14.946C12.4332 14.946 14.0876 13.2916 14.0876 11.2508C14.0876 9.21004 12.4332 7.55566 10.3924 7.55566C8.35164 7.55566 6.69727 9.21004 6.69727 11.2508C6.69727 13.2916 8.35164 14.946 10.3924 14.946Z" fill="#87CBFF"/>
<path d="M10.3921 14.0762C11.9527 14.0762 13.2178 12.8111 13.2178 11.2505C13.2178 9.68991 11.9527 8.4248 10.3921 8.4248C8.83151 8.4248 7.56641 9.68991 7.56641 11.2505C7.56641 12.8111 8.83151 14.0762 10.3921 14.0762Z" fill="#F4FAFF"/>
<path d="M10.3921 14.0762C11.9527 14.0762 13.2178 12.8111 13.2178 11.2505C13.2178 9.68991 11.9527 8.4248 10.3921 8.4248C8.83151 8.4248 7.56641 9.68991 7.56641 11.2505C7.56641 12.8111 8.83151 14.0762 10.3921 14.0762Z" fill="#F4FAFF"/>
<path d="M18.803 26.4448C22.1697 26.4448 24.899 23.7156 24.899 20.3489C24.899 16.9822 22.1697 14.2529 18.803 14.2529C15.4363 14.2529 12.707 16.9822 12.707 20.3489C12.707 23.7156 15.4363 26.4448 18.803 26.4448Z" fill="#49B0FF"/>
<path d="M18.8032 25.0108C21.3778 25.0108 23.4649 22.9237 23.4649 20.3491C23.4649 17.7746 21.3778 15.6875 18.8032 15.6875C16.2287 15.6875 14.1416 17.7746 14.1416 20.3491C14.1416 22.9237 16.2287 25.0108 18.8032 25.0108Z" fill="#49B0FF"/>
<path d="M18.8032 25.0108C21.3778 25.0108 23.4649 22.9237 23.4649 20.3491C23.4649 17.7746 21.3778 15.6875 18.8032 15.6875C16.2287 15.6875 14.1416 17.7746 14.1416 20.3491C14.1416 22.9237 16.2287 25.0108 18.8032 25.0108Z" fill="#87CBFF"/>
<path d="M31.0088 11.6977H35.6555C36.2851 11.6977 36.8958 11.7669 37.4877 11.9054C38.0796 12.0314 38.6021 12.2454 39.0555 12.5477C39.5213 12.8499 39.8929 13.2465 40.1699 13.7377C40.4469 14.2288 40.5855 14.8269 40.5855 15.5321C40.5855 16.5017 40.3085 17.2951 39.7543 17.9121C39.2129 18.5165 38.4699 18.9257 37.5255 19.1399L41.0955 25.071H38.2243L35.1266 19.4043H33.3888V25.071H31.0088V11.6977ZM35.3343 17.4588C35.6743 17.4588 36.0143 17.4335 36.3543 17.3832C36.6943 17.3329 36.9966 17.2385 37.261 17.0999C37.538 16.9614 37.7647 16.7662 37.941 16.5143C38.1174 16.2499 38.2055 15.9162 38.2055 15.5132C38.2055 15.148 38.1235 14.8521 37.9599 14.6254C37.7963 14.3862 37.5885 14.1973 37.3366 14.0588C37.0847 13.9202 36.7951 13.8258 36.4677 13.7754C36.1529 13.7251 35.8443 13.6999 35.5421 13.6999H33.3888V17.4588H35.3343ZM46.5768 23.9188H46.5202C46.2935 24.3218 45.9283 24.6554 45.4246 24.9199C44.9208 25.1718 44.348 25.2977 43.7057 25.2977C43.3405 25.2977 42.9564 25.2473 42.5535 25.1465C42.163 25.0585 41.798 24.9073 41.458 24.6932C41.1305 24.4665 40.8535 24.1769 40.6268 23.8243C40.4127 23.4591 40.3057 23.0121 40.3057 22.4832C40.3057 21.8032 40.4946 21.2618 40.8724 20.8588C41.2627 20.4557 41.7602 20.1473 42.3646 19.9332C42.9691 19.7191 43.6364 19.5807 44.3668 19.5177C45.1097 19.4421 45.8338 19.4043 46.5391 19.4043V19.1777C46.5391 18.611 46.3313 18.1954 45.9157 17.931C45.5127 17.654 45.028 17.5154 44.4613 17.5154C43.9827 17.5154 43.523 17.6162 43.0824 17.8177C42.6416 18.0191 42.2764 18.2646 41.9868 18.5543L40.8157 17.1754C41.3319 16.6969 41.9238 16.338 42.5913 16.0988C43.2713 15.8595 43.9575 15.7399 44.6502 15.7399C45.456 15.7399 46.1172 15.8532 46.6335 16.0799C47.1624 16.3065 47.578 16.6025 47.8802 16.9677C48.1824 17.3329 48.3902 17.7421 48.5035 18.1954C48.6294 18.6488 48.6924 19.1021 48.6924 19.5554V25.071H46.5768V23.9188ZM46.5391 20.9343H46.0291C45.6638 20.9343 45.2797 20.9532 44.8768 20.991C44.4738 21.0162 44.1024 21.0854 43.7624 21.1988C43.4224 21.2996 43.1391 21.4507 42.9124 21.6521C42.6857 21.841 42.5724 22.1054 42.5724 22.4454C42.5724 22.6596 42.6164 22.8421 42.7046 22.9932C42.8052 23.1318 42.9313 23.2451 43.0824 23.3332C43.2335 23.4213 43.4035 23.4843 43.5924 23.5221C43.7813 23.5599 43.9702 23.5788 44.1591 23.5788C44.9397 23.5788 45.5316 23.371 45.9346 22.9554C46.3375 22.5399 46.5391 21.9732 46.5391 21.2554V20.9343ZM49.1986 20.4999C49.1986 19.7821 49.3245 19.1335 49.5764 18.5543C49.8408 17.9624 50.1934 17.4588 50.6342 17.0432C51.075 16.6277 51.5975 16.3065 52.202 16.0799C52.8064 15.8532 53.4486 15.7399 54.1286 15.7399C54.8086 15.7399 55.4508 15.8532 56.0553 16.0799C56.6597 16.3065 57.1823 16.6277 57.6231 17.0432C58.0639 17.4588 58.41 17.9624 58.662 18.5543C58.9264 19.1335 59.0586 19.7821 59.0586 20.4999C59.0586 21.2177 58.9264 21.8724 58.662 22.4643C58.41 23.0562 58.0639 23.5662 57.6231 23.9943C57.1823 24.4099 56.6597 24.7373 56.0553 24.9765C55.4508 25.2157 54.8086 25.3354 54.1286 25.3354C53.4486 25.3354 52.8064 25.2157 52.202 24.9765C51.5975 24.7373 51.075 24.4099 50.6342 23.9943C50.1934 23.5662 49.8408 23.0562 49.5764 22.4643C49.3245 21.8724 49.1986 21.2177 49.1986 20.4999ZM51.5031 20.4999C51.5031 20.8524 51.5534 21.2051 51.6542 21.5577C51.7675 21.9102 51.9312 22.2251 52.1453 22.5021C52.3594 22.7791 52.63 23.0057 52.9575 23.1821C53.285 23.3585 53.6753 23.4465 54.1286 23.4465C54.582 23.4465 54.9723 23.3585 55.2997 23.1821C55.6272 23.0057 55.8978 22.7791 56.112 22.5021C56.3261 22.2251 56.4834 21.9102 56.5842 21.5577C56.6975 21.2051 56.7542 20.8524 56.7542 20.4999C56.7542 20.1473 56.6975 19.801 56.5842 19.461C56.4834 19.1085 56.3261 18.7935 56.112 18.5165C55.8978 18.2396 55.6272 18.0191 55.2997 17.8554C54.9723 17.6791 54.582 17.591 54.1286 17.591C53.6753 17.591 53.285 17.6791 52.9575 17.8554C52.63 18.0191 52.3594 18.2396 52.1453 18.5165C51.9312 18.7935 51.7675 19.1085 51.6542 19.461C51.5534 19.801 51.5031 20.1473 51.5031 20.4999ZM59.6509 16.0043H61.8042V17.4588H61.842C62.0434 17.0054 62.3898 16.6088 62.8809 16.2688C63.3845 15.9162 63.9764 15.7399 64.6564 15.7399C65.2482 15.7399 65.752 15.8469 66.1675 16.061C66.5956 16.2625 66.942 16.5332 67.2064 16.8732C67.4834 17.2132 67.6848 17.6035 67.8109 18.0443C67.9367 18.4851 67.9998 18.9385 67.9998 19.4043V25.071H65.7331V20.0465C65.7331 19.7821 65.7142 19.5051 65.6764 19.2154C65.6387 18.9257 65.5567 18.6677 65.4309 18.441C65.3048 18.2018 65.1287 18.0065 64.902 17.8554C64.6879 17.7043 64.3982 17.6288 64.0331 17.6288C63.6679 17.6288 63.3531 17.7043 63.0887 17.8554C62.8242 17.994 62.6037 18.1765 62.4275 18.4032C62.2637 18.6299 62.1379 18.8943 62.0498 19.1965C61.9615 19.4862 61.9175 19.7821 61.9175 20.0843V25.071H59.6509V16.0043ZM73.3458 11.6977H75.4047L81.1658 25.071H78.4458L77.1992 22.011H71.4003L70.1914 25.071H67.5281L73.3458 11.6977ZM76.3681 19.971L74.3092 14.531L72.2125 19.971H76.3681ZM80.808 16.0043H83.0746V25.071H80.808V16.0043ZM80.4869 12.9254C80.4869 12.5602 80.6191 12.2454 80.8835 11.981C81.1607 11.704 81.5069 11.5654 81.9224 11.5654C82.338 11.5654 82.6843 11.6977 82.9613 11.9621C83.251 12.214 83.3958 12.5351 83.3958 12.9254C83.3958 13.3158 83.251 13.6432 82.9613 13.9077C82.6843 14.1595 82.338 14.2854 81.9224 14.2854C81.5069 14.2854 81.1607 14.1532 80.8835 13.8888C80.6191 13.6117 80.4869 13.2906 80.4869 12.9254ZM84.219 16.0043H86.3912V17.5154H86.429C86.6809 16.9865 87.0334 16.5584 87.4867 16.231C87.9401 15.9036 88.469 15.7399 89.0734 15.7399C89.1615 15.7399 89.2559 15.7462 89.3567 15.7588C89.4575 15.7588 89.5456 15.7714 89.6212 15.7965V17.8743C89.4701 17.8365 89.3379 17.8113 89.2245 17.7988C89.1237 17.7862 89.0231 17.7799 88.9223 17.7799C88.4059 17.7799 87.9904 17.8743 87.6756 18.0632C87.3609 18.2521 87.1153 18.4788 86.939 18.7432C86.7626 19.0077 86.6431 19.2785 86.5801 19.5554C86.5171 19.8324 86.4856 20.0529 86.4856 20.2165V25.071H84.219V16.0043Z" fill="#49B0FF"/>
</g>
<defs>
<clipPath id="clip0">
<rect width="102.343" height="34" fill="white"/>
</clipPath>
</defs>
</svg>
